<svg width="64" height="64" viewBox="0 0 64 64" fill="none" xmlns="http://www.w3.org/2000/svg">
<path d="M44.9 44.2008C44.8318 44.4332 44.7175 44.6495 44.5638 44.8367C44.41 45.0239 44.2201 45.1781 44.0053 45.2902C43.7906 45.4022 43.5554 45.4698 43.3139 45.4888C43.0725 45.5078 42.8296 45.4779 42.6 45.4008H42.5C42.0504 45.2085 41.6922 44.8504 41.5 44.4008H41.4L37.6 38.2008C37.4349 37.9423 37.1772 37.7568 36.8796 37.6824C36.582 37.608 36.2673 37.6503 36 37.8008C35.7505 37.9969 35.5751 38.2719 35.5024 38.5808C35.4298 38.8896 35.4642 39.214 35.6 39.5008L39.4 45.6008L40 46.5008L39.8 46.9008C39.6099 47.2093 39.3311 47.4533 39 47.6008C38.7961 47.7392 38.5593 47.8213 38.3134 47.8389C38.0676 47.8565 37.8215 47.8088 37.6 47.7008C37.1629 47.5413 36.8045 47.2188 36.6 46.8008H36.5L32.7 40.5008C32.6459 40.3274 32.5531 40.1685 32.4287 40.0362C32.3042 39.9039 32.1514 39.8015 31.9816 39.7368C31.8119 39.6722 31.6297 39.6469 31.4487 39.6629C31.2678 39.6789 31.0928 39.7358 30.9371 39.8293C30.7813 39.9227 30.6488 40.0503 30.5495 40.2024C30.4503 40.3546 30.3868 40.5272 30.364 40.7074C30.3412 40.8876 30.3595 41.0707 30.4177 41.2428C30.476 41.4148 30.5725 41.5714 30.7 41.7008L34.4 48.0008L34.7 48.5008V48.9008C34.4824 49.1848 34.2104 49.4228 33.9 49.6008C33.4483 49.8072 32.9338 49.8287 32.4665 49.6605C31.9993 49.4922 31.6164 49.1478 31.4 48.7008L27.8 42.7008C27.6295 42.4714 27.3827 42.3103 27.1041 42.2467C26.8254 42.183 26.5332 42.2209 26.28 42.3535C26.0268 42.4861 25.8293 42.7048 25.7229 42.9701C25.6166 43.2354 25.6085 43.53 25.7 43.8008L29.2 49.6008L29 50.0008C28.8775 50.2203 28.7103 50.4117 28.5093 50.5626C28.3084 50.7136 28.078 50.8208 27.833 50.8773C27.5881 50.9338 27.3341 50.9384 27.0872 50.8908C26.8404 50.8432 26.6063 50.7444 26.4 50.6008C26.0914 50.4107 25.8475 50.1318 25.7 49.8008H25.6L19.4 39.3008C19.282 39.1162 19.1194 38.9644 18.9271 38.8595C18.7347 38.7546 18.5191 38.7 18.3 38.7008H13.5V22.8008H25.6L20.8 27.5008C20.5938 27.6896 20.4273 27.9176 20.3104 28.1716C20.1935 28.4256 20.1285 28.7003 20.1192 28.9798C20.1099 29.2592 20.1565 29.5377 20.2562 29.7988C20.3559 30.06 20.5068 30.2987 20.7 30.5008L21.1 30.8008L21.8 31.2008C22.8004 31.8888 23.9859 32.2571 25.2 32.2571C26.4141 32.2571 27.5996 31.8888 28.6 31.2008L35.3 26.9008L44.8 42.8008C44.9154 43.0136 44.984 43.2485 45.0012 43.49C45.0185 43.7314 44.984 43.9738 44.9 44.2008Z" fill="white"/>
<path d="M45.1 39.0004L36.6 24.9004C36.5337 24.7557 36.4368 24.6271 36.3159 24.5235C36.1951 24.4199 36.0532 24.3438 35.9001 24.3004C35.7289 24.2582 35.5506 24.2543 35.3777 24.2889C35.2049 24.3234 35.0418 24.3957 34.9001 24.5004L27.1 29.5004C26.4498 29.8879 25.707 30.0924 24.9501 30.0924C24.1931 30.0924 23.4503 29.8879 22.8 29.5004L22.3 29.2004L30.9 20.9004C31.5113 20.2861 32.334 19.9284 33.2001 19.9004H41.8C42.25 19.9049 42.6936 20.0072 43.1 20.2004L50.6 23.3004V39.0004H45.1Z" fill="white"/>
<g style="mix-blend-mode:darken">
<path d="M3 18H13V42H3V18ZM51 18H61V42H51V18Z" fill="#FFC05F"/>
</g>
<path d="M44.8 42.8008L35.3 26.9008L28.6 31.2008C27.5996 31.8888 26.4141 32.2571 25.2 32.2571C23.9859 32.2571 22.8004 31.8888 21.8 31.2008L21.1 30.8008L20.7 30.5008C20.5068 30.2987 20.3559 30.06 20.2562 29.7988C20.1565 29.5377 20.1099 29.2592 20.1192 28.9798C20.1285 28.7003 20.1935 28.4256 20.3104 28.1716C20.4273 27.9176 20.5938 27.6896 20.8 27.5008L25.6 22.8008H13.5V24.8008H22.6L26 25.0008C25.2 25.8008 24.3 24.5008 21 29.0008C21.9944 29.6655 23.0298 30.2667 24.1 30.8008V31.0008C26.2 32.3008 27.5 30.8008 28.1 31.0008L33.1 27.0008L42.9 44.8008C43 44.9008 43 44.9008 43 45.0008L43.6 45.4008H43.7C44.7 45.7008 44.7 45.2008 45 44.2008C45.0691 43.9667 45.087 43.7206 45.0525 43.479C45.018 43.2374 44.9319 43.0061 44.8 42.8008Z" fill="#DEE0E2"/>
<path d="M60.8 17.4004H51.3C50.9817 17.4004 50.6765 17.5268 50.4515 17.7519C50.2264 17.9769 50.1 18.2821 50.1 18.6004V21.0004L43.7 18.4004C43.038 18.1141 42.3209 17.9775 41.6 18.0004H33.4C32.6829 17.9788 31.9687 18.1003 31.299 18.3579C30.6294 18.6154 30.0178 19.0038 29.5 19.5004L28.1 20.9004H13.9V18.6004C13.9 18.2821 13.7736 17.9769 13.5485 17.7519C13.3235 17.5268 13.0183 17.4004 12.7 17.4004H3.2C3.04241 17.4004 2.88637 17.4314 2.74078 17.4917C2.59519 17.552 2.4629 17.6404 2.35147 17.7519C2.24004 17.8633 2.15165 17.9956 2.09134 18.1412C2.03104 18.2868 2 18.4428 2 18.6004V41.9004C2 42.2187 2.12643 42.5239 2.35147 42.7489C2.57652 42.974 2.88174 43.1004 3.2 43.1004H12.7C13.0183 43.1004 13.3235 42.974 13.5485 42.7489C13.7736 42.5239 13.9 42.2187 13.9 41.9004V41.0004H18L23.6 50.4004C23.9838 51.047 24.5235 51.5872 25.1699 51.9715C25.8162 52.3558 26.5486 52.572 27.3 52.6004C27.9435 52.5888 28.5758 52.4295 29.148 52.1348C29.7202 51.84 30.217 51.4177 30.6 50.9004L31.5 51.3004L32.9 51.5004C33.6043 51.4873 34.294 51.2972 34.9056 50.9477C35.5172 50.5982 36.0311 50.1005 36.4 49.5004H36.6L37.9 49.7004C38.6231 49.7142 39.3371 49.5364 39.9693 49.1852C40.6016 48.8339 41.1297 48.3217 41.5 47.7004H41.6V47.4004L42.7 47.6004C43.2469 47.6006 43.7884 47.4913 44.2924 47.279C44.7965 47.0667 45.253 46.7558 45.6351 46.3644C46.0171 45.973 46.317 45.5092 46.5171 45.0001C46.7171 44.4911 46.8133 43.9472 46.8 43.4004C46.8125 42.777 46.6753 42.1598 46.4 41.6004L46.1 41.1004H50V42.0004C50 42.3187 50.1264 42.6239 50.3515 42.8489C50.5765 43.074 50.8817 43.2004 51.2 43.2004H60.7C60.8746 43.2157 61.0503 43.1925 61.215 43.1326C61.3797 43.0726 61.5292 42.9774 61.6531 42.8535C61.777 42.7296 61.8723 42.58 61.9322 42.4154C61.9921 42.2507 62.0153 42.075 62 41.9004V18.6004C62 18.4428 61.969 18.2868 61.9087 18.1412C61.8484 17.9956 61.76 17.8633 61.6485 17.7519C61.5371 17.6404 61.4048 17.552 61.2592 17.4917C61.1136 17.4314 60.9576 17.4004 60.8 17.4004ZM11.7 41.0004H4V19.4004H11.7V41.0004ZM44.9 44.2004C44.8318 44.4328 44.7175 44.6491 44.5638 44.8363C44.41 45.0235 44.2201 45.1777 44.0053 45.2898C43.7906 45.4018 43.5554 45.4694 43.3139 45.4884C43.0725 45.5074 42.8296 45.4775 42.6 45.4004H42.5C42.0504 45.2082 41.6922 44.85 41.5 44.4004H41.4L37.6 38.2004C37.4349 37.9419 37.1772 37.7564 36.8796 37.682C36.582 37.6076 36.2673 37.65 36 37.8004C35.7505 37.9965 35.5751 38.2715 35.5024 38.5804C35.4298 38.8892 35.4642 39.2136 35.6 39.5004L39.4 45.6004L40 46.5004L39.8 46.9004C39.6099 47.2089 39.3311 47.4529 39 47.6004C38.7961 47.7388 38.5593 47.8209 38.3134 47.8385C38.0676 47.8561 37.8215 47.8084 37.6 47.7004C37.1629 47.5409 36.8045 47.2184 36.6 46.8004H36.5L32.7 40.5004C32.6459 40.327 32.5531 40.1681 32.4287 40.0358C32.3042 39.9035 32.1514 39.8011 31.9816 39.7365C31.8119 39.6718 31.6297 39.6465 31.4487 39.6625C31.2678 39.6785 31.0928 39.7354 30.9371 39.8289C30.7813 39.9223 30.6488 40.0499 30.5495 40.202C30.4503 40.3542 30.3868 40.5268 30.364 40.707C30.3412 40.8873 30.3595 41.0703 30.4177 41.2424C30.476 41.4144 30.5725 41.571 30.7 41.7004L34.4 48.0004L34.7 48.5004V48.9004C34.4824 49.1844 34.2104 49.4224 33.9 49.6004C33.4483 49.8069 32.9338 49.8283 32.4665 49.6601C31.9993 49.4918 31.6164 49.1474 31.4 48.7004L27.8 42.7004C27.6295 42.471 27.3827 42.3099 27.1041 42.2463C26.8254 42.1826 26.5332 42.2205 26.28 42.3531C26.0268 42.4857 25.8293 42.7044 25.7229 42.9697C25.6166 43.235 25.6085 43.5296 25.7 43.8004L29.2 49.6004L29 50.0004C28.8775 50.2199 28.7103 50.4113 28.5093 50.5622C28.3084 50.7132 28.078 50.8204 27.833 50.8769C27.5881 50.9335 27.3341 50.938 27.0872 50.8904C26.8404 50.8428 26.6063 50.744 26.4 50.6004C26.0914 50.4103 25.8475 50.1314 25.7 49.8004H25.6L19.4 39.3004C19.282 39.1158 19.1194 38.964 18.9271 38.8591C18.7347 38.7542 18.5191 38.6996 18.3 38.7004H13.5V22.8004H25.6L20.8 27.5004C20.5938 27.6892 20.4273 27.9172 20.3104 28.1712C20.1935 28.4252 20.1285 28.6999 20.1192 28.9794C20.1099 29.2588 20.1565 29.5373 20.2562 29.7985C20.3559 30.0596 20.5068 30.2983 20.7 30.5004L21.1 30.8004L21.8 31.2004C22.8004 31.8884 23.9859 32.2567 25.2 32.2567C26.4141 32.2567 27.5996 31.8884 28.6 31.2004L35.3 26.9004L44.8 42.8004C44.9154 43.0132 44.984 43.2481 45.0012 43.4896C45.0185 43.731 44.984 43.9734 44.9 44.2004ZM45.1 39.0004L36.6 24.9004C36.5337 24.7557 36.4367 24.6271 36.3159 24.5235C36.195 24.4199 36.0531 24.3438 35.9 24.3004C35.7289 24.2582 35.5505 24.2543 35.3777 24.2889C35.2049 24.3234 35.0418 24.3957 34.9 24.5004L27.1 29.5004C26.4498 29.8879 25.7069 30.0924 24.95 30.0924C24.1931 30.0924 23.4502 29.8879 22.8 29.5004L22.3 29.2004L30.9 20.9004C31.5112 20.2861 32.3339 19.9284 33.2 19.9004H41.8C42.25 19.9049 42.6936 20.0072 43.1 20.2004L50.6 23.3004V39.0004H45.1ZM60 41.0004H52.3V19.4004H60V41.0004Z" fill="#4D535B"/>
</svg>
