<svg width="59" height="41" viewBox="0 0 59 41" fill="none" xmlns="http://www.w3.org/2000/svg">
<g clip-path="url(#clip0_276_9)">
<path d="M11.5711 9.45664V7.34264H49.6301V9.45664H11.5701H11.5711ZM50.6861 4.17064V2.05664H53.8571C54.2738 2.05638 54.6865 2.13827 55.0716 2.29764C55.4567 2.457 55.8066 2.69071 56.1013 2.98541C56.396 3.2801 56.6297 3.62999 56.7891 4.01508C56.9484 4.40016 57.0303 4.81288 57.0301 5.22964V32.1866H54.3871V6.28664C54.3872 6.00894 54.3326 5.73394 54.2264 5.47734C54.1203 5.22074 53.9646 4.98758 53.7682 4.79117C53.5719 4.59476 53.3388 4.43896 53.0823 4.33266C52.8257 4.22635 52.5508 4.17164 52.2731 4.17164H50.6871L50.6861 4.17064Z" fill="#DEE0E2"/>
<path d="M57.5431 35.5423C57.5432 36.1277 57.428 36.7073 57.2041 37.2481C56.9801 37.7889 56.6518 38.2803 56.2379 38.6942C55.824 39.1081 55.3327 39.4364 54.7918 39.6603C54.251 39.8843 53.6714 39.9994 53.0861 39.9993H11.5701V6.57031H20.5561" stroke="#4D535B" stroke-width="2" stroke-miterlimit="10" stroke-linejoin="round"/>
<path d="M50.8569 32.2C51.3249 31.409 52.2719 31.086 53.0859 31.086C53.6713 31.0859 54.2509 31.2011 54.7917 31.425C55.3325 31.6489 55.8239 31.9772 56.2378 32.3911C56.6517 32.805 56.98 33.2964 57.2039 33.8372C57.4279 34.378 57.5431 34.9577 57.5429 35.543V5.457C57.5431 4.87166 57.4279 4.29203 57.2039 3.75122C56.98 3.21042 56.6517 2.71903 56.2378 2.30513C55.8239 1.89124 55.3325 1.56294 54.7917 1.339C54.2509 1.11506 53.6713 0.999869 53.0859 1C52.2719 1 51.2359 1.19 50.8569 2.114V32.2Z" stroke="#4D535B" stroke-width="2" stroke-miterlimit="10" stroke-linejoin="round"/>
<path d="M3.786 6.17188C2.248 6.17188 1 7.17487 1 8.40087V33.9009L3.786 39.4729L6.57 33.9009V8.40087C6.57 7.17487 5.323 6.17188 3.786 6.17188Z" fill="#FFC05F" stroke="#4D535B" stroke-width="2" stroke-miterlimit="10" stroke-linejoin="round"/>
<path d="M1 12.8563H6.571M19.657 6.57031H50.857M31.657 11.4563H45.93M31.657 15.9133H45.93M31.657 20.3713H42.586M26.372 11.4563H17.914V20.9703H26.371L26.372 11.4563Z" stroke="#4D535B" stroke-width="2" stroke-miterlimit="10" stroke-linejoin="round"/>
<path d="M39.0571 35.7712H46.4571V28.3712H39.0571V35.7712ZM39.0571 35.7712H32.7141M39.0571 35.7712V25.1992H32.7141V35.7712M25.3141 35.7712V27.3132H32.7141V35.7712M25.3141 35.7712H32.7141M25.3141 35.7712H17.9141V31.5412H25.3141V35.7712Z" stroke="#4D535B" stroke-width="2" stroke-miterlimit="10"/>
</g>
<defs>
<clipPath id="clip0_276_9">
<rect width="59" height="41" fill="white"/>
</clipPath>
</defs>
</svg>
