<svg width="64" height="64" viewBox="0 0 64 64" fill="none" xmlns="http://www.w3.org/2000/svg">
<path d="M18 30L20 51H19V56H47V51H45L47 30H18Z" fill="white"/>
<path d="M47 30H18L18.2 33H44L42 52H44V56H47V51H45L47 30Z" fill="#DEE0E2"/>
<path d="M39.5 29.7008L49.7 9.80078L55.1 12.6008L46.2 29.7008" stroke="#4D535B" stroke-width="2" stroke-miterlimit="10"/>
<path d="M50.9999 29.2008L56.2999 18.8008L47.3999 14.2008M14.8999 21.9008L19.3999 29.7008M27.7999 29.7008L21.0999 17.9008M20.9999 18.8008L15.1999 22.5008M23.5999 29.7008L18.6999 20.5008M36.4999 29.7008L36.5999 17.2008L33.1999 9.90078L29.9999 17.5008V29.7008M36.0999 17.8008L29.9999 18.1008M33.2999 29.7008L33.0999 18.9008M45.5999 50.8008L47.2999 30.0008H18.1999L19.7999 50.8008M18.3999 56.2008H47.0999V51.2008H18.3999V56.2008ZM11.6999 8.30078C10.7149 11.1755 10.6451 14.2848 11.4999 17.2008C12.9999 21.3008 16.5999 22.2008 19.3999 18.9008C19.7258 18.6037 19.9636 18.2225 20.0871 17.7991C20.2105 17.3757 20.215 16.9265 20.0999 16.5008C18.9999 13.3008 15.7999 14.3008 11.6999 8.30078Z" stroke="#4D535B" stroke-width="2" stroke-miterlimit="10"/>
<g style="mix-blend-mode:darken">
<path d="M14.9999 23.0008L19.9999 30.0008H27.9999L21.9999 19.0008L14.9999 23.0008ZM11.6999 8.30078C10.7149 11.1755 10.6451 14.2848 11.4999 17.2008C12.9999 21.3008 16.5999 22.2008 19.3999 18.9008C19.7258 18.6037 19.9636 18.2225 20.0871 17.7991C20.2105 17.3757 20.215 16.9265 20.0999 16.5008C18.9999 13.3008 15.7999 14.3008 11.6999 8.30078ZM38.9999 30.0008L49.9999 10.0008L54.9999 13.0008L45.9999 30.0008H38.9999ZM29.9999 30.0008H36.9999L35.9999 18.0008L32.9999 10.0008L29.9999 18.0008V30.0008Z" fill="#FFC05F"/>
</g>
</svg>
