<svg width="47" height="54" viewBox="0 0 47 54" fill="none" xmlns="http://www.w3.org/2000/svg">
<path d="M2 15.1992H36.7V47.9992C36.7 49.0601 36.2786 50.0775 35.5284 50.8276C34.7783 51.5778 33.7609 51.9992 32.7 51.9992H6C4.93913 51.9992 3.92172 51.5778 3.17157 50.8276C2.42143 50.0775 2 49.0601 2 47.9992V15.1992Z" fill="white"/>
<path d="M2 15.1992V19.3992H32.5V50.8992C32.5 51.2992 32.4 51.5992 32.4 51.8992C34.2 51.4992 36.7 49.7992 36.7 47.7992V15.1992H2Z" fill="#DEE0E2"/>
<path d="M11.5 15.1992V23.5992M3 15.1992H35.7C35.9652 15.1992 36.2196 15.3046 36.4071 15.4921C36.5946 15.6796 36.7 15.934 36.7 16.1992V46.9992C36.7 48.3253 36.1732 49.5971 35.2355 50.5348C34.2979 51.4724 33.0261 51.9992 31.7 51.9992H7C5.67392 51.9992 4.40215 51.4724 3.46447 50.5348C2.52678 49.5971 2 48.3253 2 46.9992V16.1992C2 15.934 2.10536 15.6796 2.29289 15.4921C2.48043 15.3046 2.73478 15.1992 3 15.1992Z" stroke="#4D535B" stroke-width="2.1" stroke-miterlimit="10"/>
<path d="M15.2 24.0996H7.69995C7.14767 24.0996 6.69995 24.5473 6.69995 25.0996V34.6596C6.69995 35.2119 7.14767 35.6596 7.69995 35.6596H15.2C15.7522 35.6596 16.2 35.2119 16.2 34.6596V25.0996C16.2 24.5473 15.7522 24.0996 15.2 24.0996Z" stroke="#4D535B" stroke-width="2.23" stroke-miterlimit="10"/>
<g style="mix-blend-mode:darken">
<path d="M15.2 24.0996H7.69995C7.14767 24.0996 6.69995 24.5473 6.69995 25.0996V34.6596C6.69995 35.2119 7.14767 35.6596 7.69995 35.6596H15.2C15.7522 35.6596 16.2 35.2119 16.2 34.6596V25.0996C16.2 24.5473 15.7522 24.0996 15.2 24.0996Z" fill="#FFC05F"/>
</g>
<path d="M36.6999 23.6C39.0386 23.8409 41.2048 24.9404 42.7798 26.6859C44.3547 28.4315 45.2265 30.699 45.2265 33.05C45.2265 35.401 44.3547 37.6685 42.7798 39.4141C41.2048 41.1596 39.0386 42.2591 36.6999 42.5M19.8999 0.5V11" stroke="#4D535B" stroke-width="2.1" stroke-miterlimit="10"/>
<path d="M26.2001 2.59961V10.9996M13.6001 2.59961V10.9996" stroke="#4D535B" stroke-width="1.88" stroke-miterlimit="10"/>
</svg>
