<svg width="64" height="64" viewBox="0 0 64 64" fill="none" xmlns="http://www.w3.org/2000/svg">
<path d="M29 9.19922C31.2635 9.22554 33.4253 10.1432 35.0166 11.7532C36.6078 13.3632 37.5002 15.5356 37.5 17.7992V31.6992C37.5 32.8155 37.2801 33.9208 36.853 34.952C36.4258 35.9833 35.7997 36.9203 35.0104 37.7096C34.2211 38.4989 33.2841 39.125 32.2528 39.5522C31.2215 39.9794 30.1162 40.1992 29 40.1992C26.7457 40.1992 24.5837 39.3037 22.9896 37.7096C21.3955 36.1156 20.5 33.9536 20.5 31.6992V17.7992C20.4998 15.5356 21.3922 13.3632 22.9834 11.7532C24.5747 10.1432 26.7365 9.22554 29 9.19922Z" fill="white"/>
<path d="M28.5001 10.1992C27.1464 10.2065 25.814 10.5369 24.6139 11.1631C23.4137 11.7893 22.3804 12.6931 21.6001 13.7992C23.0254 12.7655 24.7394 12.2058 26.5001 12.1992C31.2001 12.1992 34.0001 16.0992 34.0001 20.7992V34.6992C34.022 36.4643 33.4594 38.1871 32.4001 39.5992C34.6001 38.0992 37.0001 35.5992 37.0001 32.6992V18.7992C37.0003 16.5356 36.1079 14.3632 34.5167 12.7532C32.9254 11.1432 30.7636 10.2255 28.5001 10.1992Z" fill="#DEE0E2"/>
<path d="M42.2999 29.3008V32.5008C42.2738 36.0201 40.8641 39.3878 38.3756 41.8764C35.887 44.365 32.5192 45.7746 29 45.8008M29 45.8008C25.4807 45.7746 22.1129 44.365 19.6244 41.8764C17.1358 39.3878 15.7261 36.0201 15.7 32.5008V29.3008M29 45.8008V56.3008M18.1 56.8008H39.9" stroke="#4D535B" stroke-width="2" stroke-miterlimit="10"/>
<path d="M20.9 17.4992H25.7M20.9 22.2992H25.7M20.9 27.1992H25.7M20.9 31.9992H25.7M32.3 17.4992H37.1M32.3 22.2992H37.1M32.3 27.1992H37.1M32.3 31.9992H37.1M29 9.19922C31.2635 9.22554 33.4253 10.1432 35.0166 11.7532C36.6078 13.3632 37.5002 15.5356 37.5 17.7992V31.6992C37.5 32.8155 37.2801 33.9208 36.853 34.952C36.4258 35.9833 35.7997 36.9203 35.0104 37.7096C34.2211 38.4989 33.2841 39.125 32.2528 39.5522C31.2215 39.9794 30.1162 40.1992 29 40.1992C26.7457 40.1992 24.5837 39.3037 22.9896 37.7096C21.3955 36.1156 20.5 33.9536 20.5 31.6992V17.7992C20.4998 15.5356 21.3922 13.3632 22.9834 11.7532C24.5747 10.1432 26.7365 9.22554 29 9.19922ZM47.8 17.8992C48.1434 17.7717 48.5122 17.7281 48.8758 17.7719C49.2395 17.8157 49.5874 17.9457 49.8906 18.1511C50.1939 18.3566 50.4437 18.6314 50.6192 18.9529C50.7948 19.2743 50.8911 19.6331 50.9 19.9992C50.843 20.8327 50.5056 21.6223 49.9428 22.2397C49.3799 22.857 48.6247 23.2657 47.8 23.3992C46.1 23.6992 44.7 22.7992 44.7 21.1992C44.7784 20.3835 45.1253 19.6169 45.6863 19.0197C46.2474 18.4224 46.9908 18.0283 47.8 17.8992Z" stroke="#4D535B" stroke-width="2" stroke-miterlimit="10"/>
<path d="M50.8 10.5L58.1 13.1V8.6L50.8 6V20.7" stroke="#4D535B" stroke-width="2" stroke-miterlimit="10"/>
<g style="mix-blend-mode:darken">
<path d="M47.7999 17.9C48.1433 17.7725 48.5122 17.7288 48.8758 17.7726C49.2394 17.8165 49.5873 17.9465 49.8906 18.1519C50.1938 18.3573 50.4436 18.6322 50.6192 18.9537C50.7948 19.2751 50.891 19.6338 50.9 20C50.843 20.8335 50.5056 21.6231 49.9427 22.2405C49.3798 22.8578 48.6246 23.2665 47.7999 23.4C46.0999 23.7 44.7 22.8 44.7 21.2C44.7783 20.3843 45.1252 19.6177 45.6863 19.0205C46.2473 18.4232 46.9907 18.0291 47.7999 17.9ZM50.7 10.5L58 13.1V8.6L50.7 6" fill="#FFC05F"/>
</g>
</svg>
