<svg width="64" height="64" viewBox="0 0 64 64" fill="none" xmlns="http://www.w3.org/2000/svg">
<path d="M11 15H53V44H11V15Z" fill="white"/>
<path d="M11 15V18H50V44H53V15H11Z" fill="#DEE0E2"/>
<path d="M20.9 21.9008H24.3L27.4 32.1008H37.8M26.8 29.0008H38.9M26 25.9008H39.5999M36.5 47.4008V54.3008M27.5 54.3008V47.4008M19.1 54.7008H44.9M9.69995 11.3008H54.2999C54.963 11.3008 55.5989 11.5642 56.0677 12.033C56.5366 12.5019 56.7999 13.1377 56.7999 13.8008V44.5008C56.8004 45.1734 56.5403 45.82 56.0741 46.3048C55.6079 46.7896 54.972 47.0749 54.2999 47.1008H9.69995C9.02787 47.0749 8.39196 46.7896 7.92579 46.3048C7.45961 45.82 7.19945 45.1734 7.19995 44.5008V13.8008C7.19995 13.1377 7.46334 12.5019 7.93218 12.033C8.40103 11.5642 9.03691 11.3008 9.69995 11.3008ZM10.8 14.8008H53.2V43.5008H10.8V14.8008ZM29 35.7008C29.1351 35.6847 29.2722 35.6995 29.4009 35.7441C29.5295 35.7886 29.6464 35.8618 29.7426 35.9581C29.8389 36.0544 29.9121 36.1712 29.9567 36.2999C30.0012 36.4285 30.016 36.5656 30 36.7008C30 36.966 29.8946 37.2204 29.7071 37.4079C29.5195 37.5954 29.2652 37.7008 29 37.7008C28.7423 37.6783 28.5008 37.5657 28.318 37.3828C28.1351 37.1999 28.0225 36.9584 28 36.7008C28 36.4356 28.1053 36.1812 28.2928 35.9937C28.4804 35.8061 28.7347 35.7008 29 35.7008ZM35.4 35.7008C35.5351 35.6847 35.6722 35.6995 35.8009 35.7441C35.9295 35.7886 36.0464 35.8618 36.1426 35.9581C36.2389 36.0544 36.3121 36.1712 36.3567 36.2999C36.4012 36.4285 36.416 36.5656 36.4 36.7008C36.4 36.966 36.2946 37.2204 36.1071 37.4079C35.9195 37.5954 35.6652 37.7008 35.4 37.7008C35.1347 37.7008 34.8804 37.5954 34.6928 37.4079C34.5053 37.2204 34.4 36.966 34.4 36.7008C34.3839 36.5656 34.3987 36.4285 34.4432 36.2999C34.4878 36.1712 34.561 36.0544 34.6573 35.9581C34.7535 35.8618 34.8704 35.7886 34.999 35.7441C35.1277 35.6995 35.2648 35.6847 35.4 35.7008Z" stroke="#4D535B" stroke-width="2" stroke-miterlimit="10"/>
<g style="mix-blend-mode:darken">
<path d="M27 47H37V54H27V47Z" fill="#FFC05F"/>
</g>
</svg>
