<svg width="64" height="64" viewBox="0 0 64 64" fill="none" xmlns="http://www.w3.org/2000/svg">
<path d="M58.7029 18.7227H44.7029L37.7029 9.72266H20.7029L13.7029 18.7227H6.70288C5.00288 18.7227 3.70288 20.0227 3.70288 21.7227V48.7227C3.70288 50.4227 5.00288 51.7227 6.70288 51.7227H58.7029C60.4029 51.7227 61.7029 50.4227 61.7029 48.7227V21.7227C61.7029 20.0227 60.4029 18.7227 58.7029 18.7227Z" fill="white" stroke="#404145" stroke-width="2" stroke-miterlimit="10"/>
<path d="M50.7029 15.7227V13.7227H57.7029V15.7227" stroke="#404145" stroke-width="2" stroke-miterlimit="10"/>
<path d="M29.7029 46.7227C37.4349 46.7227 43.7029 40.4547 43.7029 32.7227C43.7029 24.9907 37.4349 18.7227 29.7029 18.7227C21.9709 18.7227 15.7029 24.9907 15.7029 32.7227C15.7029 40.4547 21.9709 46.7227 29.7029 46.7227Z" fill="#FFC05F" stroke="#404145" stroke-width="2" stroke-miterlimit="10"/>
<path d="M29.7029 42.7227C35.2259 42.7227 39.7029 38.2457 39.7029 32.7227C39.7029 27.1997 35.2259 22.7227 29.7029 22.7227C24.1799 22.7227 19.7029 27.1997 19.7029 32.7227C19.7029 38.2457 24.1799 42.7227 29.7029 42.7227Z" fill="white" stroke="#404145" stroke-width="2" stroke-miterlimit="10"/>
<path d="M24.1029 30.7227C24.9029 28.4227 27.1029 26.7227 29.8029 26.7227M24.5029 35.7227C24.0029 34.8227 23.7029 33.8227 23.7029 32.7227M7.70288 23.7227H13.7029" stroke="#404145" stroke-width="2" stroke-miterlimit="10"/>
<path d="M58.7029 51.7227H49.7029V18.7227H58.7029C60.4029 18.7227 61.7029 20.0227 61.7029 21.7227V48.7227C61.7029 50.3227 60.4029 51.7227 58.7029 51.7227Z" fill="#FFC05F" stroke="#404145" stroke-width="2" stroke-miterlimit="10"/>
<path d="M42.7029 44.7227H44.7029" stroke="#404145" stroke-width="2" stroke-miterlimit="10"/>
</svg>
