<svg width="64" height="64" viewBox="0 0 64 64" fill="none" xmlns="http://www.w3.org/2000/svg">
<path d="M8 21H56V53H8V21Z" fill="white"/>
<path d="M8 21V24H52V53H56V21H8Z" fill="#DEE0E2"/>
<path d="M25.1 30.9004L17.5 37.1004L25.1 43.2004M38.9 30.9004L46.5 37.1004L38.9 43.2004M34.4 27.9004L30.5 46.2004" stroke="#4D535B" stroke-width="2" stroke-miterlimit="10"/>
<path d="M55.5 20.7008H8.5M55.5 11.3008H8.5V52.7008H55.5V11.3008Z" stroke="#4D535B" stroke-width="2" stroke-miterlimit="10"/>
<path d="M49.6001 15.4008C49.4649 15.3848 49.3278 15.3996 49.1992 15.4441C49.0705 15.4887 48.9537 15.5619 48.8574 15.6581C48.7611 15.7544 48.688 15.8713 48.6434 15.9999C48.5988 16.1286 48.584 16.2656 48.6001 16.4008C48.6001 16.666 48.7055 16.9204 48.893 17.1079C49.0805 17.2955 49.3349 17.4008 49.6001 17.4008C49.8577 17.3783 50.0992 17.2657 50.2821 17.0828C50.465 16.9 50.5776 16.6585 50.6001 16.4008C50.6001 16.1356 50.4947 15.8813 50.3072 15.6937C50.1197 15.5062 49.8653 15.4008 49.6001 15.4008ZM42.9001 15.4008C42.7649 15.3848 42.6278 15.3996 42.4992 15.4441C42.3705 15.4887 42.2537 15.5619 42.1574 15.6581C42.0611 15.7544 41.988 15.8713 41.9434 15.9999C41.8988 16.1286 41.884 16.2656 41.9001 16.4008C41.9001 16.666 42.0055 16.9204 42.193 17.1079C42.3805 17.2955 42.6349 17.4008 42.9001 17.4008C43.1577 17.3783 43.3992 17.2657 43.5821 17.0828C43.765 16.9 43.8776 16.6585 43.9001 16.4008C43.9001 16.1356 43.7947 15.8813 43.6072 15.6937C43.4197 15.5062 43.1653 15.4008 42.9001 15.4008Z" stroke="#4D535B" stroke-width="2" stroke-miterlimit="10"/>
<g style="mix-blend-mode:darken">
<path d="M8 11H56V21H8V11Z" fill="#FFC05F"/>
</g>
</svg>
