<svg width="64" height="64" viewBox="0 0 64 64" fill="none" xmlns="http://www.w3.org/2000/svg">
<path d="M15 17H49V47H15V17Z" fill="white"/>
<path d="M15 17V20H47V47H49V17H15Z" fill="#DEE0E2"/>
<path d="M8 10.9004V53.1004M14.5 10.9004V53.1004M8.2 13.5004H14.3M8.2 19.7004H14.3M8.2 25.8004H14.3M8.2 32.0004H14.3M8.2 38.2004H14.3M8.2 44.3004H14.3M8.2 50.5004H14.3M49.5 10.9004V53.1004M56 10.9004V53.1004M49.7 13.5004H55.8M49.7 19.7004H55.8M49.7 25.8004H55.8M49.7 32.0004H55.8M49.7 38.2004H55.8M49.7 44.3004H55.8M49.7 50.5004H55.8M15.6 46.7004H49.5M15.6 17.3004H49.5M27.3 23.9004C28.9071 22.9598 30.7574 22.5178 32.6161 22.6303C34.4749 22.7429 36.2583 23.405 37.7402 24.5326C39.2221 25.6602 40.3357 27.2026 40.9397 28.964C41.5437 30.7254 41.611 32.6266 41.1329 34.4263C40.6549 36.2261 39.6531 37.8432 38.2546 39.0728C36.8561 40.3023 35.1239 41.0887 33.2777 41.3323C31.4316 41.576 29.5547 41.2658 27.8851 40.4411C26.2156 39.6165 24.8285 38.3145 23.9 36.7004C23.2741 35.6389 22.8654 34.4637 22.6977 33.2429C22.5299 32.0221 22.6064 30.7802 22.9228 29.5893C23.2391 28.3983 23.789 27.2821 24.5404 26.3055C25.2919 25.3289 26.2299 24.5114 27.3 23.9004Z" stroke="#4D535B" stroke-width="2" stroke-miterlimit="10"/>
<path d="M29.3 27.9004V36.7004L33.2001 34.5004L37 32.3004L33.2001 30.1004L29.3 27.9004Z" fill="#4D535B"/>
<g style="mix-blend-mode:darken">
<path d="M8 14H14V50H8V14ZM50 14H56V50H50V14Z" fill="#FFC05F"/>
</g>
</svg>
