<svg width="64" height="64" viewBox="0 0 64 64" fill="none" xmlns="http://www.w3.org/2000/svg">
<path d="M39.7001 10.8008H13.2001C12.7758 10.8008 12.3688 10.9694 12.0687 11.2694C11.7687 11.5695 11.6001 11.9764 11.6001 12.4008V51.8008C11.6001 52.2251 11.7687 52.6321 12.0687 52.9322C12.3688 53.2322 12.7758 53.4008 13.2001 53.4008H39.7001C40.1244 53.4008 40.5314 53.2322 40.8315 52.9322C41.1315 52.6321 41.3001 52.2251 41.3001 51.8008V12.4008C41.3001 11.9764 41.1315 11.5695 40.8315 11.2694C40.5314 10.9694 40.1244 10.8008 39.7001 10.8008Z" fill="white"/>
<path d="M39.7001 10.8008H13.2001C12.7758 10.8008 12.3688 10.9694 12.0687 11.2694C11.7687 11.5695 11.6001 11.9764 11.6001 12.4008V13.8008H36.7001C37.1244 13.8008 37.5314 13.9694 37.8315 14.2694C38.1315 14.5695 38.3001 14.9764 38.3001 15.4008V53.4008H39.7001C40.1244 53.4008 40.5314 53.2322 40.8315 52.9322C41.1315 52.6321 41.3001 52.2251 41.3001 51.8008V12.4008C41.3001 11.9764 41.1315 11.5695 40.8315 11.2694C40.5314 10.9694 40.1244 10.8008 39.7001 10.8008Z" fill="#DEE0E2"/>
<g style="mix-blend-mode:darken">
<path d="M47 16H52V48.3C52 48.5232 51.956 48.7443 51.8706 48.9506C51.7852 49.1568 51.6599 49.3442 51.5021 49.5021C51.3442 49.6599 51.1568 49.7852 50.9506 49.8706C50.7443 49.956 50.5232 50 50.3 50C49.4248 50 48.5854 49.6523 47.9665 49.0335C47.3477 48.4146 47 47.5752 47 46.7V16Z" fill="#FFC05F"/>
</g>
<path d="M39.7001 10.8008H13.2001C12.7758 10.8008 12.3688 10.9694 12.0687 11.2694C11.7687 11.5695 11.6001 11.9764 11.6001 12.4008V51.8008C11.6001 52.2251 11.7687 52.6321 12.0687 52.9322C12.3688 53.2322 12.7758 53.4008 13.2001 53.4008H39.7001C40.1244 53.4008 40.5314 53.2322 40.8315 52.9322C41.1315 52.6321 41.3001 52.2251 41.3001 51.8008V12.4008C41.3001 11.9764 41.1315 11.5695 40.8315 11.2694C40.5314 10.9694 40.1244 10.8008 39.7001 10.8008ZM46.9001 16.1008H52.6001V45.8008C52.6001 51.7008 46.9001 51.7008 46.9001 45.8008V16.1008Z" stroke="#4D535B" stroke-width="2" stroke-miterlimit="10"/>
<path d="M56.3 31.9004L56.4 20.8004H46.9M49.7 53.4004V50.2004M18 19.4004H26.4M18 27.3004H34.9M18 32.0004H34.9M18 36.6004H34.9M18 41.3004H26.4" stroke="#4D535B" stroke-width="2" stroke-miterlimit="10"/>
</svg>
